/* XPM */
static char *dummy[]={
"64 64 154 2",
".l c #000000",
".m c #010101",
".H c #020202",
".w c #030303",
".1 c #040404",
"## c #050505",
".s c #060606",
".h c #070707",
"#l c #080808",
"ak c #0b0b0b",
".t c #0d0d0d",
"#m c #0e0e0e",
"a. c #101010",
"#r c #111111",
"a# c #131313",
"#9 c #141414",
"#L c #151515",
"al c #1b1b1b",
"#I c #1d1d1d",
".7 c #1f1f1f",
".k c #212121",
"#5 c #242424",
"ao c #252525",
".9 c #282828",
".z c #292929",
".6 c #2a2a2a",
"ai c #2b2b2b",
"#X c #2d2d2d",
"#y c #2e2e2e",
"af c #303030",
"#U c #313131",
".q c #323232",
"#b c #343434",
"#g c #353535",
".L c #363636",
".R c #373737",
".i c #383838",
".v c #3a3a3a",
".u c #3c3c3c",
"#c c #3e3e3e",
"#M c #404040",
"ab c #414141",
"#i c #424242",
".S c #434343",
"#u c #444444",
"#o c #454545",
".Z c #464646",
".4 c #494949",
"an c #4a4a4a",
"#d c #4c4c4c",
"#k c #4f4f4f",
"#f c #505050",
".M c #525252",
"#4 c #545454",
"#J c #555555",
".n c #575757",
".K c #585858",
".c c #595959",
"ag c #5b5b5b",
"#h c #5d5d5d",
"#N c #5e5e5e",
"#s c #5f5f5f",
".F c #616161",
".d c #636363",
"#O c #646464",
".W c #656565",
".A c #676767",
".T c #686868",
"aj c #696969",
"#v c #6a6a6a",
"#A c #6e6e6e",
"#e c #6f6f6f",
".p c #717171",
"#R c #727272",
"#t c #747474",
".g c #757575",
"ah c #777777",
"#j c #797979",
"#w c #7c7c7c",
"#p c #7d7d7d",
"#B c #7e7e7e",
".D c #828282",
".b c #838383",
".N c #848484",
".Y c #868686",
"#Q c #878787",
"am c #888888",
".3 c #898989",
".e c #8a8a8a",
".J c #8d8d8d",
".Q c #8e8e8e",
"#Z c #909090",
"#K c #919191",
"#Y c #949494",
"#3 c #959595",
"#1 c #9b9b9b",
"#S c #9e9e9e",
".E c #9f9f9f",
"#. c #a3a3a3",
"#H c #aaaaaa",
"aa c #ababab",
"#2 c #b2b2b2",
"#6 c #b3b3b3",
".a c #b5b5b5",
"#W c #b6b6b6",
"aq c #b7b7b7",
".r c #b8b8b8",
"#P c #b9b9b9",
"ac c #bcbcbc",
"#F c #bdbdbd",
"at c #c3c3c3",
"#G c #c4c4c4",
"#8 c #c5c5c5",
"ad c #c7c7c7",
".G c #c8c8c8",
"#a c #cacaca",
".j c #cccccc",
".f c #cdcdcd",
".U c #cfcfcf",
".8 c #d1d1d1",
".X c #d2d2d2",
"#C c #d4d4d4",
"#x c #d5d5d5",
".0 c #d7d7d7",
"as c #d8d8d8",
".C c #d9d9d9",
"ar c #dadada",
"ap c #dddddd",
".2 c #dedede",
"ae c #e2e2e2",
"#T c #e3e3e3",
"#z c #e6e6e6",
".V c #e7e7e7",
"#7 c #e8e8e8",
"au c #e9e9e9",
"aw c #eaeaea",
"ax c #ebebeb",
".o c #ececec",
"#V c #ededed",
".O c #efefef",
"av c #f0f0f0",
".P c #f1f1f1",
".# c #f2f2f2",
"#E c #f3f3f3",
"#0 c #f4f4f4",
".I c #f5f5f5",
".x c #f7f7f7",
"#q c #f9f9f9",
".B c #fafafa",
"#n c #fbfbfb",
".y c #fcfcfc",
"#D c #fdfdfd",
".5 c #fefefe",
"Qt c #ffffff",
"QtQtQtQtQtQtQtQtQtQtQtQtQtQtQtQtQtQtQtQtQtQtQtQtQtQtQtQtQtQtQtQtQtQtQtQtQtQtQtQtQtQtQtQtQtQtQtQtQtQtQtQtQtQtQtQtQtQtQtQtQtQtQtQt",
"QtQtQtQtQtQtQtQtQtQtQtQtQtQtQtQtQtQtQtQtQtQtQtQtQtQtQtQtQtQtQtQtQtQtQtQtQtQtQtQtQtQtQtQtQtQtQtQtQtQtQtQtQtQtQtQtQtQtQtQtQtQtQtQt",
"QtQtQtQtQtQtQtQtQtQtQtQtQtQtQtQtQtQtQtQtQtQtQtQtQtQtQtQtQtQtQtQtQtQtQtQtQtQtQtQtQtQtQtQtQtQtQtQtQtQtQtQtQtQtQtQtQtQtQtQtQtQtQtQt",
"QtQtQtQtQtQtQtQtQtQtQtQtQtQtQtQtQtQtQtQtQtQtQtQtQtQtQtQtQtQtQtQtQtQtQtQtQtQtQtQtQtQtQtQtQtQtQtQtQtQtQtQtQtQtQtQtQtQtQtQtQtQtQtQt",
"QtQtQtQtQtQtQtQtQtQtQtQtQtQtQtQtQtQtQtQtQtQtQtQtQtQtQtQtQtQtQtQtQtQtQtQtQtQtQtQtQtQtQtQtQtQtQtQtQtQtQtQtQtQtQtQtQtQtQtQtQtQtQtQt",
"QtQtQtQtQtQtQtQtQtQtQtQtQtQtQtQtQtQtQtQtQtQtQtQtQtQtQtQtQtQtQtQtQtQtQtQtQtQtQtQtQtQtQtQtQtQtQtQtQtQtQtQtQtQtQtQtQtQtQtQtQtQtQtQt",
"QtQtQtQtQtQtQtQtQtQtQtQtQtQtQtQtQtQtQtQtQtQtQtQtQtQtQtQtQtQtQtQtQtQtQtQtQtQtQtQtQtQtQtQtQtQtQtQtQtQtQtQtQtQtQtQtQtQtQtQtQtQtQtQt",
"QtQtQtQtQtQtQtQtQtQtQtQtQtQtQtQtQtQtQtQtQtQtQtQtQtQtQtQtQtQtQtQtQtQtQtQtQtQtQtQtQtQtQtQtQtQtQtQtQtQtQtQtQtQtQtQtQtQtQtQtQtQtQtQt",
"QtQtQtQtQtQtQtQtQtQtQtQtQtQtQtQtQtQtQtQtQtQtQtQtQtQtQtQtQtQtQtQtQtQtQtQtQtQtQtQtQtQtQtQtQtQtQtQtQtQtQtQtQtQtQtQtQtQtQtQtQtQtQtQt",
"QtQtQtQtQtQtQtQtQtQtQtQtQtQtQtQtQtQtQtQtQtQtQtQtQtQtQtQtQtQtQtQtQtQtQtQtQtQtQtQtQtQtQtQtQtQtQtQtQtQtQtQtQtQtQtQtQtQtQtQtQtQtQtQt",
"QtQtQtQtQtQtQtQtQtQtQtQtQtQtQtQtQtQtQtQtQtQtQtQtQtQtQtQtQtQtQtQtQtQtQtQtQtQtQtQtQtQtQtQtQtQtQtQtQtQtQtQtQtQtQtQtQtQtQtQtQtQtQtQt",
"QtQtQtQtQtQtQtQtQtQtQtQtQtQtQtQtQtQtQtQtQtQtQtQtQtQtQtQtQtQtQtQtQtQtQtQtQtQtQtQtQtQtQtQtQtQtQtQtQtQtQtQtQtQtQtQtQtQtQtQtQtQtQtQt",
"QtQtQtQtQtQtQtQtQtQtQtQtQtQtQtQtQtQtQtQtQtQtQtQtQtQtQtQtQtQtQtQtQtQtQtQtQtQtQtQtQtQtQtQtQtQtQtQtQtQtQtQtQtQtQtQtQtQtQtQtQtQtQtQt",
"QtQtQtQtQtQtQtQtQtQtQtQtQtQtQtQtQtQtQtQtQtQtQtQtQtQtQtQtQtQtQtQtQtQtQtQtQtQtQtQtQtQtQtQtQtQtQtQtQtQtQtQtQtQtQtQtQtQtQtQtQtQtQtQt",
"QtQtQtQtQtQtQtQtQtQtQtQtQtQtQtQtQtQtQtQtQtQtQtQtQtQtQtQtQtQtQtQtQtQtQtQtQtQtQtQtQtQtQtQtQtQtQtQtQtQtQtQtQtQtQtQtQtQtQtQtQtQtQtQt",
"QtQtQtQtQtQtQtQtQtQtQtQtQtQtQtQtQtQtQtQtQtQtQtQtQtQtQtQtQtQtQtQtQtQtQtQtQtQtQtQtQtQtQtQtQtQtQtQtQtQtQtQtQtQtQtQtQtQtQtQtQtQtQtQt",
"QtQtQtQtQtQtQtQtQtQtQtQtQtQtQtQtQtQtQtQtQtQtQtQtQtQtQtQtQtQtQtQtQtQtQtQtQtQtQtQtQtQtQtQtQtQtQtQtQtQtQtQtQtQtQtQtQtQtQtQtQtQtQtQt",
"QtQtQtQtQtQtQtQtQtQtQtQtQtQtQtQtQtQtQtQtQtQtQtQtQtQtQtQtQtQtQtQtQtQtQtQtQtQtQtQtQtQtQtQtQtQtQtQtQtQtQtQtQtQtQtQtQtQtQtQtQtQtQtQt",
"QtQtQtQtQtQtQtQtQtQtQtQtQtQtQtQtQtQtQtQtQtQtQtQtQtQtQtQtQtQtQtQtQtQtQtQtQtQtQtQtQtQtQtQtQtQtQtQtQtQtQtQtQtQtQtQtQtQtQtQtQtQtQtQt",
"QtQtQtQtQtQtQtQtQtQtQtQtQtQtQtQtQtQtQtQtQtQtQtQtQtQtQtQtQtQtQtQtQtQtQtQtQtQtQtQtQtQtQtQtQtQtQtQtQtQtQtQtQtQtQtQtQtQtQtQtQtQtQtQt",
"QtQtQtQtQtQtQtQtQtQtQtQtQtQtQtQtQtQtQtQtQtQtQtQtQtQtQtQtQtQtQtQtQtQtQtQtQtQtQtQtQtQtQtQtQtQtQtQtQtQtQtQtQtQtQtQtQtQtQtQtQtQtQtQt",
"QtQtQtQtQtQtQtQtQtQtQtQtQtQtQtQtQtQtQtQtQtQtQtQtQtQtQtQtQtQtQtQtQtQtQtQtQtQtQtQtQtQtQtQtQtQtQtQtQtQtQtQtQtQtQtQtQtQtQtQtQtQtQtQt",
"QtQtQtQtQtQtQtQtQtQtQtQtQtQtQtQtQtQtQtQtQtQtQtQtQtQtQtQtQtQtQtQtQtQtQtQtQtQtQtQtQtQtQtQtQtQtQtQtQtQtQtQtQtQtQtQtQtQtQtQtQtQtQtQt",
"QtQtQtQtQtQtQtQtQtQt.#.a.b.c.d.e.fQtQtQtQtQt.g.h.iQtQtQtQtQtQtQtQtQtQtQtQtQtQtQtQtQtQtQtQtQtQtQtQtQtQtQtQtQtQtQtQtQtQtQtQtQtQtQt",
"QtQtQtQtQtQtQtQtQt.j.k.l.l.l.l.l.m.n.oQtQtQt.p.l.qQtQtQtQtQtQtQtQtQtQtQtQtQtQtQtQtQtQtQtQtQtQtQtQtQtQtQtQtQtQtQtQtQtQtQtQtQtQtQt",
"QtQtQtQtQtQtQtQt.r.s.l.l.t.u.v.w.l.l.v.xQtQt.p.l.qQtQtQtQtQtQtQtQtQtQtQtQtQtQtQtQtQtQtQtQtQtQtQtQtQtQtQtQtQtQtQtQtQtQtQtQtQtQtQt",
"QtQtQtQtQtQtQt.y.z.l.l.A.BQtQt.C.z.l.l.DQtQt.p.l.qQtQtQtQtQtQtQtQtQtQtQtQtQtQtQtQtQtQtQtQtQtQtQtQtQtQtQtQtQtQtQtQtQtQtQtQtQtQtQt",
"QtQtQtQtQtQtQt.E.l.l.FQtQtQtQtQt.G.H.l.zQtQt.p.l.qQtQtQtQt.I.J.K.L.M.N.OQtQtQtQt.P.Q.M.R.S.T.UQtQtQt.V.W.W.X.Y.Z.L.0QtQtQtQtQtQt",
"QtQtQtQtQtQtQt.n.l.1.2QtQtQtQtQtQt.3.4.c.5Qt.p.l.qQtQtQt.C.6.l.l.l.l.l.7.8QtQt.#.9.l.l.l.l.l.H#.QtQt.0.l.l##.l.l.l#aQtQtQtQtQtQt",
"QtQtQtQtQtQtQt#b.l#cQtQtQtQtQtQtQtQtQtQtQtQt.p.l.qQtQtQt.v.l.l#d#e#f.l.l#g.5Qt#h.l.l#i#j#k#l.l#m#nQt.0.l.l.l.w#o#p#qQtQtQtQtQtQt",
"QtQtQtQtQtQtQt#r.l#sQtQtQtQtQtQtQtQtQtQtQtQt.p.l.qQtQt.a.l.l.AQtQtQt.A.l.l.rQt#t#u#v.5QtQt#w.l.l#xQt.0.l.l#y#zQtQtQtQtQtQtQtQtQt",
"QtQtQtQtQtQtQt.H.l#AQtQtQtQtQtQtQtQtQtQtQtQt.p.l.qQtQt#B.l.l#C#D#D#D.G.l.l.eQtQtQtQtQtQt#E#F.l.l#GQt.0.l.l#HQtQtQtQtQtQtQtQtQtQt",
"QtQtQtQtQtQtQt#I.l#JQtQtQtQtQtQtQtQtQtQtQtQt.p.l.qQtQt.c.l.l.l.l.l.l.l.l.l.TQt.B#K.S#L.w.l.l.l.l#GQt.0.l.l.jQtQtQtQtQtQtQtQtQtQt",
"QtQtQtQtQtQtQt#M.l.6QtQtQtQtQtQtQtQtQtQtQtQt.p.l.qQtQt#k.l.l.l.l.l.l.l.l.l#NQt#d.l.l.l.l.l.l.l.l#GQt.0.l.l.fQtQtQtQtQtQtQtQtQtQt",
"QtQtQtQtQtQtQt#O.l.l#PQtQtQtQtQtQt#Q#d#R.5Qt.p.l.qQtQt#A.l.H#z#D#D#D#D#D#D.5#x.l.l.z#S#T#n.X.l.l#GQt.0.l.l.fQtQtQtQtQtQtQtQtQtQt",
"QtQtQtQtQtQtQt#a.l.l#U#VQtQtQtQt#W.m.l#XQtQt.p.l.qQtQt#Y.l.l#ZQtQtQt#0#1.J.G#2.l.l#3QtQtQt.N.l.l#GQt.0.l.l.fQtQtQtQtQtQtQtQtQtQt",
"QtQtQtQtQtQtQtQt#4.l.l#5#6#7#8#p#9.l.l#KQtQt.p.l.qQtQt.oa..la#aa#V.Gab.l.mac.f.l.l#c.fad#A##.l.l#GQt.0.l.l.fQtQtQtQtQtQtQtQtQtQt",
"QtQtQtQtQtQtQtQtaeaf.l.l.l.l.l.l.l.lag.5QtQt.p.l.qQtQtQt#3.l.l.l.l.l.l.lahQt.Bai.l.l.l.l.l.m.l.l#GQt.0.l.l.fQtQtQtQtQtQtQtQtQtQt",
"QtQtQtQtQtQtQtQtQt.xajak.l.l.l.lal#Y#nQtQtQtam.lanQtQtQtQt#6ao.m#L.l#m.g#nQtQtap#o.l#9.l.zaqa..l#GQtar#l.m.0QtQtQtQtQtQtQtQtQtQt",
"QtQtQtQtQtQtQtQtQtQtQt#Dasat#W.C#nQtQtQtQtQtQtQtQtQtQtQtQtQtQt.Pauae.yQtQtQtQtQtQtavawaxQtQtQtQtQtQtQtQtQtQtQtQtQtQtQtQtQtQtQtQt",
"QtQtQtQtQtQtQtQtQtQtQtQtQtQtQtQtQtQtQtQtQtQtQtQtQtQtQtQtQtQtQtQtQtQtQtQtQtQtQtQtQtQtQtQtQtQtQtQtQtQtQtQtQtQtQtQtQtQtQtQtQtQtQtQt",
"QtQtQtQtQtQtQtQtQtQtQtQtQtQtQtQtQtQtQtQtQtQtQtQtQtQtQtQtQtQtQtQtQtQtQtQtQtQtQtQtQtQtQtQtQtQtQtQtQtQtQtQtQtQtQtQtQtQtQtQtQtQtQtQt",
"QtQtQtQtQtQtQtQtQtQtQtQtQtQtQtQtQtQtQtQtQtQtQtQtQtQtQtQtQtQtQtQtQtQtQtQtQtQtQtQtQtQtQtQtQtQtQtQtQtQtQtQtQtQtQtQtQtQtQtQtQtQtQtQt",
"QtQtQtQtQtQtQtQtQtQtQtQtQtQtQtQtQtQtQtQtQtQtQtQtQtQtQtQtQtQtQtQtQtQtQtQtQtQtQtQtQtQtQtQtQtQtQtQtQtQtQtQtQtQtQtQtQtQtQtQtQtQtQtQt",
"QtQtQtQtQtQtQtQtQtQtQtQtQtQtQtQtQtQtQtQtQtQtQtQtQtQtQtQtQtQtQtQtQtQtQtQtQtQtQtQtQtQtQtQtQtQtQtQtQtQtQtQtQtQtQtQtQtQtQtQtQtQtQtQt",
"QtQtQtQtQtQtQtQtQtQtQtQtQtQtQtQtQtQtQtQtQtQtQtQtQtQtQtQtQtQtQtQtQtQtQtQtQtQtQtQtQtQtQtQtQtQtQtQtQtQtQtQtQtQtQtQtQtQtQtQtQtQtQtQt",
"QtQtQtQtQtQtQtQtQtQtQtQtQtQtQtQtQtQtQtQtQtQtQtQtQtQtQtQtQtQtQtQtQtQtQtQtQtQtQtQtQtQtQtQtQtQtQtQtQtQtQtQtQtQtQtQtQtQtQtQtQtQtQtQt",
"QtQtQtQtQtQtQtQtQtQtQtQtQtQtQtQtQtQtQtQtQtQtQtQtQtQtQtQtQtQtQtQtQtQtQtQtQtQtQtQtQtQtQtQtQtQtQtQtQtQtQtQtQtQtQtQtQtQtQtQtQtQtQtQt",
"QtQtQtQtQtQtQtQtQtQtQtQtQtQtQtQtQtQtQtQtQtQtQtQtQtQtQtQtQtQtQtQtQtQtQtQtQtQtQtQtQtQtQtQtQtQtQtQtQtQtQtQtQtQtQtQtQtQtQtQtQtQtQtQt",
"QtQtQtQtQtQtQtQtQtQtQtQtQtQtQtQtQtQtQtQtQtQtQtQtQtQtQtQtQtQtQtQtQtQtQtQtQtQtQtQtQtQtQtQtQtQtQtQtQtQtQtQtQtQtQtQtQtQtQtQtQtQtQtQt",
"QtQtQtQtQtQtQtQtQtQtQtQtQtQtQtQtQtQtQtQtQtQtQtQtQtQtQtQtQtQtQtQtQtQtQtQtQtQtQtQtQtQtQtQtQtQtQtQtQtQtQtQtQtQtQtQtQtQtQtQtQtQtQtQt",
"QtQtQtQtQtQtQtQtQtQtQtQtQtQtQtQtQtQtQtQtQtQtQtQtQtQtQtQtQtQtQtQtQtQtQtQtQtQtQtQtQtQtQtQtQtQtQtQtQtQtQtQtQtQtQtQtQtQtQtQtQtQtQtQt",
"QtQtQtQtQtQtQtQtQtQtQtQtQtQtQtQtQtQtQtQtQtQtQtQtQtQtQtQtQtQtQtQtQtQtQtQtQtQtQtQtQtQtQtQtQtQtQtQtQtQtQtQtQtQtQtQtQtQtQtQtQtQtQtQt",
"QtQtQtQtQtQtQtQtQtQtQtQtQtQtQtQtQtQtQtQtQtQtQtQtQtQtQtQtQtQtQtQtQtQtQtQtQtQtQtQtQtQtQtQtQtQtQtQtQtQtQtQtQtQtQtQtQtQtQtQtQtQtQtQt",
"QtQtQtQtQtQtQtQtQtQtQtQtQtQtQtQtQtQtQtQtQtQtQtQtQtQtQtQtQtQtQtQtQtQtQtQtQtQtQtQtQtQtQtQtQtQtQtQtQtQtQtQtQtQtQtQtQtQtQtQtQtQtQtQt",
"QtQtQtQtQtQtQtQtQtQtQtQtQtQtQtQtQtQtQtQtQtQtQtQtQtQtQtQtQtQtQtQtQtQtQtQtQtQtQtQtQtQtQtQtQtQtQtQtQtQtQtQtQtQtQtQtQtQtQtQtQtQtQtQt",
"QtQtQtQtQtQtQtQtQtQtQtQtQtQtQtQtQtQtQtQtQtQtQtQtQtQtQtQtQtQtQtQtQtQtQtQtQtQtQtQtQtQtQtQtQtQtQtQtQtQtQtQtQtQtQtQtQtQtQtQtQtQtQtQt",
"QtQtQtQtQtQtQtQtQtQtQtQtQtQtQtQtQtQtQtQtQtQtQtQtQtQtQtQtQtQtQtQtQtQtQtQtQtQtQtQtQtQtQtQtQtQtQtQtQtQtQtQtQtQtQtQtQtQtQtQtQtQtQtQt",
"QtQtQtQtQtQtQtQtQtQtQtQtQtQtQtQtQtQtQtQtQtQtQtQtQtQtQtQtQtQtQtQtQtQtQtQtQtQtQtQtQtQtQtQtQtQtQtQtQtQtQtQtQtQtQtQtQtQtQtQtQtQtQtQt",
"QtQtQtQtQtQtQtQtQtQtQtQtQtQtQtQtQtQtQtQtQtQtQtQtQtQtQtQtQtQtQtQtQtQtQtQtQtQtQtQtQtQtQtQtQtQtQtQtQtQtQtQtQtQtQtQtQtQtQtQtQtQtQtQt",
"QtQtQtQtQtQtQtQtQtQtQtQtQtQtQtQtQtQtQtQtQtQtQtQtQtQtQtQtQtQtQtQtQtQtQtQtQtQtQtQtQtQtQtQtQtQtQtQtQtQtQtQtQtQtQtQtQtQtQtQtQtQtQtQt",
"QtQtQtQtQtQtQtQtQtQtQtQtQtQtQtQtQtQtQtQtQtQtQtQtQtQtQtQtQtQtQtQtQtQtQtQtQtQtQtQtQtQtQtQtQtQtQtQtQtQtQtQtQtQtQtQtQtQtQtQtQtQtQtQt",
"QtQtQtQtQtQtQtQtQtQtQtQtQtQtQtQtQtQtQtQtQtQtQtQtQtQtQtQtQtQtQtQtQtQtQtQtQtQtQtQtQtQtQtQtQtQtQtQtQtQtQtQtQtQtQtQtQtQtQtQtQtQtQtQt",
"QtQtQtQtQtQtQtQtQtQtQtQtQtQtQtQtQtQtQtQtQtQtQtQtQtQtQtQtQtQtQtQtQtQtQtQtQtQtQtQtQtQtQtQtQtQtQtQtQtQtQtQtQtQtQtQtQtQtQtQtQtQtQtQt"};
