/* XPM */
static char *dummy[]={
"64 64 104 2",
".z c #010101",
"#H c #040305",
".Q c #050303",
"#s c #050405",
"Qt c #070504",
".I c #080606",
".l c #0b0807",
".K c #0d0a08",
".C c #0e0b0a",
".Y c #110d08",
".A c #110e0b",
".m c #130f0d",
".T c #130f0f",
"#k c #140e09",
"#b c #140e0c",
"#u c #150f09",
".B c #16100c",
"#c c #171210",
".X c #191108",
".U c #191311",
".O c #1a130c",
".E c #1c140d",
".# c #1c1511",
".L c #1d1614",
".J c #1f1815",
".N c #20170e",
".V c #201810",
".n c #211a15",
".p c #221a11",
"#i c #24180c",
".e c #251b12",
"#j c #261a0e",
".a c #261c15",
"#f c #261f1b",
"#a c #271e17",
"#J c #281e13",
".v c #281e15",
"#d c #291d11",
".c c #2b2017",
".W c #2c1f13",
".R c #2c211a",
".x c #2c2318",
"#w c #2c231d",
".t c #2c231f",
"#e c #2e2113",
".S c #2e2319",
".d c #2f2217",
".k c #30261f",
".j c #312518",
".f c #31251a",
".r c #312823",
".6 c #322a25",
"#g c #332821",
".b c #342618",
".G c #352719",
".y c #352a1f",
".h c #352c25",
".g c #372818",
".o c #37281a",
".w c #372e27",
"#. c #382818",
".D c #382819",
".s c #382d25",
".q c #392918",
".u c #3a2a1a",
".M c #3a2c1f",
".F c #3a2f26",
"#I c #3a3128",
".i c #3c2e1d",
".H c #3c2e21",
".Z c #3e2c1a",
".P c #3e3125",
".4 c #3e3630",
".5 c #3f2e1c",
".2 c #3f2f20",
"#l c #40331f",
"#r c #403327",
"#y c #40352a",
".9 c #43311c",
"## c #433220",
".7 c #433424",
"#m c #433a31",
"#A c #443629",
".3 c #453521",
"#h c #46331e",
"#D c #46382a",
"#o c #47392a",
".8 c #473c31",
".1 c #483621",
"#x c #483d33",
"#B c #4a3926",
"#v c #4b3821",
"#C c #4b3d2e",
".0 c #4e3b25",
"#F c #4e3f2f",
"#K c #503e26",
"#z c #51402c",
"#t c #544026",
"#E c #55432b",
"#q c #574a3c",
"#G c #58452b",
"#n c #58452f",
"#p c #5c4b37",
"#L c #5e4d38",
"Qt.#.a.b.b.b.c.d.b.e.e.f.b.c.g.h.i.b.j.k.b.l.m.n.f.b.b.f.a.o.c.p.d.b.c.q.r.s.b.b.t.k.j.u.b.b.b.b.b.v.i.b.b.j.b.j.d.b.w.o.b.x.y.c",
".z.A.a.b.b.b.d.a.B.C.l.a.D.E.p.F.G.d.c.H.c.z.I.J.j.b.b.j.a.E.K.I.L.b.e.E.o.M.d.d.G.b.N.u.j.b.b.b.b.a.u.b.b.b.o.d.O.c.P.j.j.c.H.O",
".z.Q.L.R.b.b.S.l.A.L.#.f.b.m.x.N.E.d.c.d.l.z.z.T.a.b.j.b.U.l.L.U.d.o.V.p.W.X.c.c.j.B.Y.u.b.b.b.b.b.v.Z.b.b.j.j.c.m.j.X.e.d.f.n.Q",
".z.z.J.f.j.D.v.z.I.n.c.o.b.a.0.o.i.i.u.g.d.Q.z.B.f.b.b.b.l.z.L.a.b.g.a.1.2.u.u.i.q.b.v.Z.j.b.d.S.D.U.b.b.b.b.j.W.j.3.y.Z.u.g.g.p",
".Q.C.f.i.j.G.W.z.I.U.L.S.o.c.a.4.2.d.R.y.S.C.I.a.5.b.b.j.K.z.U.U.a.g.d.a.6.7.j.R.k.j.c.q.b.b.c.c.D.a.q.b.b.G.i.j.c.G.8.G.d.t.D.a",
".B.V.9.D.c#..p.z.V.#.A.a.c.O.L.D.b.j.o.2.d.#.A.Z.5.v.j.j.z.A.a.C.a.c.p.T.j.g.b.j##.b.n.G.b.D.c.c.D.#.b.b.b.b.G.d.V.Z.b.b.j.2.i.n",
".i.b.Z.b.j.o.p.Q#a.a.I.c.c.l.n.D.b.b.b.D.V.W.G.Z.D.S.D.j.Q.U.S.l.J.S.m.B.b.b.b.b.G.c.E.i.f.b.b.f.j.a.i.b.b.b.b.W.O.Z.f.b.b.b.b.A",
".g.b.j.b.j.D.V.e.b.v.a.a.a.C.p.b.j.b.j.D.N.e.g.b.b.b.b.c#b.D.d.e.a.a.##c.b.b.b.b.G.d.B.g.j.b.b.b.b.#.q.b.d.b.b.c#d.u.b.b.d.d.D.Y",
".j.b.b.j.D.g.N#e.D#f.u.R.y#b.J.g.b.b.j.G.e.p.G.b.b.b.q.W.O.Z#f.D.b#g#d#b.D.b.b.b.b.d.O.b.b.b.d.S.g#b#..R.R.G.R.f.j.u.j.b.j.b.D#c",
".b.b.g.g.g.5.N.d.u.P.5.d.f.B.J.c.G.G.i.b.c.d.b.G.i.G.5.W.O.Z.y##.j#g.U.U.e.G.b.u.D.S.c.D.b.b.b.b.b.O.q.D.7.b.y.2.c.u.j.b.b.b.b.a",
".5.j.i.q.o#h.p.Y.p.V#i#cQt.Q.U.l.c.5.o.b.e.b.G.G.Z.b.9.b.l#i#i.V.N.l.z#c.l.#.Z.q.b.d.a.g.f.b.D.D.D.A.O#j.e.v.j.N.B.u.b.b.o.D.b.N",
".5.b.5.u.j.5.p.u.G#i.l.C.U.l.c.W.c.g.b.o.v.b#..Z.Z.b.i.j.V.5#d.Y.l.U.K.V.b.a.D.G.b.d.a.i.f.b.b.b.b.E###d.j#e.g.V#k#..b.b.f.b.b.#",
".5.c.j.b.d.D.v.5.y.y.n.l.I.a.i.b.D.j.f.G.d.g.b.d.G.d.b.j.f.H#g.c#c.Q.L.D.o.b.b.j.b.j.j.g.c.b.d.d.b.c#l#g.g.w.5.b.c.i.j.b.d.d.D.a",
".q#m#n.c.w.u.n#d#o.0.a.J.U.m.b.b.j.b.g.o.p.W.h#p.b.k.5.c.N.i#n.d.J.#.B.c.o.f.b.i.G.c.V.b#q.3.R.2.b.#.b#n.i#r.H.c.E.o.b.b.b.b.b.O",
".5.2.5.j.5.D.v.b.Z.j.f.j.n.A.d.G.D.D.5.g.V.W.2##.b.5.o.d.c.i.D.f.b.a#c.p.D.D.b.5.i.c.E.5.2.G.g.i.b.a.q.g.b.b.b.c.m.b.j.b.j.j.D.A",
".d.d.c.d.c.D.e.p.G.d.D.d.a.n.b.G.5.b.Z.Z.V.N.j.W.d.c.b.c.O.o.c.b.f.v.J.S.b.5.b.g.5#e.Y.j.v.d.d.d.j.O.d.b.b.b.b.j.p.g.f.b.c.c.o.Y",
".j.c.p.E.#.E.z.p.o.b.p.j.b.V.G.g.i.j.j.o.V.V.j.p.V.O.##s.K.D.b.e#d.u.e#e.G.u.b.f.G.d#b.f.e.p.O.e.aQt.j.b.b.b.g.d.n.g.b.b.c.c.g.Y",
"#t.g.o.u.i.K.z.W.u.c.I.a.o.p.g.j.g.Z.j.o.a.3.9.g.D.5.p.z#u.u.D.C.B.G.c.d#..b.5.D.b.c.b#v.G.D.Z.i.G.p.q.b.b.j.u.j.e.u.j.G.c.c.D.V",
".q#w.o.j.b#b.z.j.u.a.J.J.j.a.i.j.q.q.c.b.c.b.x.y.b.b.n.z.E.5.c.L.J.d.c.G.g.b.Z.c.b.j.d.f.k.G.j.c.R.d.i.b.b.c.j.j.c.q.b.G.d.S.b.a",
".b.5.u.j.j.n.U.q.o.c.j.f.j.B#..b.b.j.b.D.e.a.u.2.b.b.c#c.c.5.d.d.f.G.V.c.g.b.j.b.b.c.E.D##.G.b.f.P.c.q.b.j.b.D.c.O.i.j.b.b.b.b.O",
".5.b.b.b.b.b.a.b.g.b.o.b.D.a.i.b.b.b.b.D.c.b.g.j.b.b.b.d.e.u.j.G.b.G.c.G.D.b.b.b.G.d.c.u.b.b.b.b.G.p.q.b.b.b.b.d.c.u.b.b.b.b.b.n",
".5.j.b.j.b.o.e.j.g.j.b.j.b.c.q.x.b.b.f.R.c.o.o.b.b.b.b.S#d.i.j.b.f.G.c.q.f.b.b.b.j.R.j.u.j.b.j.b.b.p.q.b.b.b.b.j.S.D.S.G.b.S.x.c",
".5.b.d.J.j.G.d.g.o.b.j.b.b.n.c#m.2.b.d.F.b.b.g.b.b.b.b.j.d.i.j.b.b.G.c#d.s#o.b.j.k.2.e.i.b.a.n.b.b.c.u.b.b.b.b.d.e.f#x#..b.S#y.p",
".q.b.c.L.b.o.c.g.g.j.b.j.D.Y.##i.E.c.v.d.K.e.g.j.b.b.b.d.j.u.j.b.b.o.V#b.v.B.a.v.d.O.Y.q.G.n.n.D.b.c.i.b.b.f.b.d.l.v.O.n.c.c#d.Q",
".Z.b.B.B.f.G.e.d.G.b.b.c.a.##z.d.D.Z.u.Z.V.d.g.b.b.d.b.d.p.u.b.G.d.j.e.3.5.b.Z.q.5.c.N.Z.c.K.J.b.b.p.D.b.b.f.c.#.c.0.W.u.Z.Z.D#b",
".5.b.T#s.n.g.c.j.q.j.b.c.L.a.b.4.2.b.S.b.S.g.g.b.b.a.f.j.e.u.b.f.g.g.c.b.h#A.b.j.c.j.c.i.c.I.C.d.b.p.D.b.b.b.a.L.c.G#m#..b.c.D.v",
".b.b.#.T.a.o.e.j.o.b.d.d.S#c.J.M.g.j.k##.c.c.b.b.b.a.j.d.e.u.j.j.D.o.a.b.5.i.b.d#r#.#a.b.f.B#c.R.D.n.o.b.b.c.j.n#c#f.2.b.d.w.5.a",
".5.b.n.J.d.G.W.d.o.j.b.b.a.I.p.b.b.f.D.D.p.d.g.b.b.d.b.d.a.g.b.b.j.o.V.W.D.j.b.b.u.c.N.u.d.J.n.b.b.p.D.b.b.b.f.#.I.S.b.b.b.D.b.B",
".i.j.n.a.d.g.c.b.g.b.b.j.n.C.p.D.b.b.b.D.V.e.g.f.b.D.b.d.c.u.f.b.b.o.p.d.D.b.b.d.b.c.E.i.c.a#a.b.b.a.u.b.b.b.S.#.K.c.b.b.b.f.D.K",
".j.b.G.j.a.g.V.W.g.a.c.a#c.z.n.D.f.b.j.D.p.V.D.b.b.c.b.c.X.Z.c.d.b.R.c.D.D.f.b.S.b.c.B.b.b.o.c.c.o#b.g.j.c.c.n.C.I.j.b.b.b.b.D#b",
".b.b.j.b.b.g.p#e.o.F.u.L.Q.I.n.j.b.Z.g.G.c.c.b.b.b.f.D.c.E.i.f#l.d.F.o.D.o.b.b.b.b.j.a.b.b.j.j.j.g.O.q.f#r.c.T.z.A.c.b.b.5.G.b.a",
".i.b.b.b.g.g.V.E.c.p.L.C.z.I.L.a.j.5.u.G.c.b.G.b.f.u.D.c.Y#e.j.d.d#..V.j.g.b.b.g.b.j.c.u.j.b.g.g.b#b.e.e.n#c.I.z.A.L.c.G.9.G.b.n",
".5.b.b.b.b.o.V.#.N#u#u.e.p.Q.a.j.c.u.b.o.p.j.g.b.b.b.D.c#u.p.V#i.c.c.l#i.D.j.b.D.G.c.e.u.b.b.b.b.D#b.e.E#u.X.c#b.l.j.d.j.u.j.D.O",
".5.d.d.G.j.b.W.1.i.G.i.H.Z.n.D.D.b.b.b.b.d.g#..c.b.j.b.d.b.1.S.i.o.5.c.j.o.j.b.c.j.j.d.i.W.b.j.j.j#a.0.j.i.M.5.b.e.u.b.b.b.b.b.a",
".q.s#B.c.k.g.v.W.P.7.y#A.b.p.g.b.Z.g.j.G.a.b.k#o.b.t.g.d.p.o#C.f#x#..v.j.o.j.b.f.G.d.a.D#y.5.c.y.o.p.d#D.g.4.2.d.v.g.b.5.D.f.b.V",
".q#D#B.j.P.g#d.d##.i.b.G.D#k.W.5.9.D.b.g.N#d.P#E.j.H.i.d.e.2.3.b.G.D.V.V.o.j.b.b.G.c.E.g#F.i.f.2.j.p.u.1.G#..G.c.Y.D.9.Z.j.b.b.A",
".Z.b.d#..G.g.c.c.b.v.c.c.b.O.d.5.5.j.b.o.V.W.g.d.b.G.b.j.n.G.d.b.b.D.e.p.o.b.b.a.b.c.O.Z.d.f.D.b.o.a.j.j#a.c.x.d.E.G.5.g.j.b.b.Y",
".p.a.V.E.O.n.l.V.D.j.L.c.G.a.G.G.Z.b.j.g.V.A.c.V.V#c.c.B.C.D.G.b.b.G.c.b.o.j.D.a.j.d.l.a.p.V.O.V.#Qt.c.g.c.#.d.j.c.o.q.i.j.j.o.Y",
"#G.q#..b.b.l.z#d.g.n#H.c.D.#.b.G.D.d.#.g.p.3#h.G.b.g.Z.W.O.g.f.b.G.u.n.c.g.f.b.a.b.c.j.0#..b.g.v.z.z.b.g.m.I.o.j.#.g.b.o.e.p.g.O",
".5.c.b.b.D.Y.z#e.i.n#c.L.j.c.q.b.b.j.a.G.c.q.j.f.b.D.c.c.j.u.j.b.c.G.c.o.g.b.b#a.j.j.S.g.c.G.D.S.QQt.u.g.#.#.a.S.c.i.j.o.c.R.D.a",
"#..s.i.b.j.#.C.D.g.c.c.c.j.O#..G.b.b.j.D.a.W.y.2.b.j.k.H.d.u.j.b.b.g.V.W.g.j.b.b.b.c.p.f.P.D.b.c.B.U.Z.b.a.c.c.c.X.Z.j.b.b.f.b.N",
".q#..b.b.b.j.a.G.o.b.j.b.b.p#..b.b.b.b.g.a.d.u.D.j.b.g.b.c.u.j.b.b.G#d.b.q.b.b.b.o.j.a.5#..b.b.b.d.p.Z.b.G.b.G.d.e.i.b.b.b.b.D.#",
".5.j.b.b.b.D.p.d.g.b.b.b.b#f.i.d.j.b.b.d.c.g.D.j.b.b.D.c.V.u.b.b.b.b.c.g.b#e.b.b.j.d.a.j.c.f.b.b.D.#.G.G.g.G.b.j.d.u.c.b.b.b.d.a",
".9.b.b.b.b.G.d.g.o.j.b.f.b.c.b.4##.b.d.w.G.D.g.j.a.d.b.d.d.Z.j.b.b.D.c.b.h#D.b.b.k.P#b.Q.L.d.b.j.b.a.b.n.Y.V.b.d.d.b#m.u.b.R#I.c",
".u.b.b.b.j.b.c.o.o.b.b.b.o.Y.E.j.a.c#f.D.O.W.g.f.J.c.D.f.d.u.j.b.f.g.p.Y.c.c.c#a.S.c.z.z#c.c.b.b.b.a.#.C.C.B.R.d.K.e.d.e.c.R.j.l",
".i.b.j.b.j.D.c.b.o.b.b.c.j.E.3#d.W.D.D.g.m.e.i.a.A.c.b.S.c.i.b.b.d.f#c.u.q#j.g.g.q.e.z.z.I.n.j.b.D.V.z.#.J.j.o.c.p.3#i.b.D.g.j.l",
".5.b.b.j.a.q.p.c.o.j.b.o.b.c.9.w.2.G.b.b.d.D.q.V#s.J.b.d.##..j.b.j.n.L.2.M.2.g.G.j.g#c.z.C.j.G.b.b.O.z.T.n.c.u.d.j##.F.i.G.j.G.a",
".G.b.b.j.a.G.c.G.o.b.b.g.b#a#.#r.i.d.t.2.d.S.g.n.I.#.b.j.c.u.b.f.c.c.J.V.k#r.b.R.s#..##s.n.Z.G.j.o.B.z#c.m.J.c.j.J.a.7.G.d.6.5.a",
".G.b.b.j.c.o.e#a.o.j.b.j.b.B.g.b.j.j.u.i#a.c.G.c.#.a.b.c.E.g.b.b.b.f#b.T.b.j.b.b.5.j.p.E.b.9.d.d.o.K.Q.R.A.E#a.a.C.c.j.j.j.i.u.#",
".5.b.b.b.b.D.c.o.g.b.b.b.o.O.q.b.b.b.S.o.N.W.i.a.J.d.D.S.c.i.b.b.D.a.T#c.b.b.b.b.b.c.O.5.b.b.b.b.D.A.B.f.O.m.c.#.l.S.o.b.b.j.g.Y",
".G.b.b.j.d.o.V.W.i.c.j.j.d.a.i.b.b.j.c.g.V.N.g.j.b.a.f.c.X.5.d.c.R.a.K#b.b.b.D.f.b.d#b.G.b.b.b.b.b.O.D.j.W.j#a.c.K.j.j.b.b.j.o.Y",
".j.b.b.j.d.g.N.W.b.k.u.c.s.j.g.b.b.b.b.b#a#J.o.b.b.d.G.c.O.i#w.H.n.C.z#c.b.b.g.g.b.d.V.b.b.b.b.i.g#b.q.R.h.b.r.o.K.S.o.j.b.b.b.V",
".q.b.b.b.o.o.V.W.g.H.u.b.5.n.Z.b.b.b.o.o.c.j.o.b.b.q.G.c.X.u.f.b.L.z.Q.#.n.f.u.9.b.j.c.D.j.Z.b.5.u#b.b.g.5.b#J.m.m.U.e.o.i.G.b.a",
".5.j.b.b.o.o.p.Y.O.V.#.c.p.I.b.b.b.b.g.o.p.j.g.j.b.D.G.c.K.E.A.K.A.U.z#c.d.a.g.u.b.d.V.i.b.5.G.g#h.Y.B.E.Y.Y.m#H.I.V.K.b.5.j.b.O",
".5.j.j.j.j.D.p.3.Z.G#..g.q.B.j.b.b.j.d.b.c.b.o.j.b.b.b.c.x#v.d.g.b##.e.e.o.f.b.b.b.d.c.u.b.Z.b.b.u.V#K.b#J.C.C#c.E.g.f.j.b.j.G.e",
".5.S.i.j.R.q.c.j.y.2.h.7.b.c.i.b.j.j.j.o.c.o.f.o.b.R.b.j.c.b#r.f#m.D.c.D.D.D.u.b.b.j.c.D.k.u.S.b.b#a.b.F.o.J.C.A.c.i.b.b.b.b.b.a",
".G#x#G.c.P.u.e.W#B.1.b.H.b#b.d.G.j.b.b.o.p.e.F#L.j.w.5.c.V###E.b.5.D.V.e.g.9.Z.j.g.c.E.o#q#l#w.2.b.N.G#E.i.a.a#c#b.o.j.j.u.q.b.m",
".9.g.b.o.i.G.d.j.b.f.b.j.D#b.c.b.b.j.c.o.V#e.5.b.G.u.D.b.v.D.c.d.d.D.V.N.Z.9.b.b.g.c.E.5.G.b.u.G.b.v.G.j.v.D.R.L.#.b.q.q.q.5.g.Y",
".e.v.e.e.V.d#b.p.o.b.b.b.G.a.G.b.b.j.a.o.p.m.x.e.e.V.d.p.A.D.b.a.n.S.c.j.G.5.G.b.g.c.l.c.c.e.V.c.c.Y.d.b.b.b.c.v.c.g.i.u.j.i.o.Y",
".0.G.d.W#e.u#u.p.o.b.b.u.g.E.b.G.b.f.a.o.N.o.5.j.c.W.U.z.K.D.b.K.O.5.n.c#..G.G.N.j.c.p.3.j.W#e.p#s.Q.j.o#d.A.u.d.#.g.b.G.b.b.G.Y",
".1.j.G.q.u.j.c.G.D.b.j.j.b#a.u.b.b.j.a.o.c.5.q.j.q.i.e.z#u.5.c.C.U.j.d.G#..j.b.n.j.j.f.9.j.o.u.j.z.Q.q.D.V.A#f.d.c.u.j.5.q.j.b.a",
".G.r.i.b.c.r.b.G.o.f.j.f.G.E.q.b.b.j.j.b.c.d.k.H.b.j.n.Q.V.Z.c.n.a.d.e#e.g.b.b.j.b.S.c.S.h.o.j.c.l.A.5.j.n.a.v.d.N.Z.j.o.j.j.b.p",
".G.i.G.b.j.5.j.G.g.j.b.b.b.O.q.b.b.b.b.D.p.v.i.i.j.b.d.n.R.i.j.f.b.D.p.d.g.f.b.b.b.d.N#..i.b.b.j.a.a.Z.b.j.b.D.c.N.i.f.b.b.b.b.E",
".5.j.j.b.b.G.p.j.g.j.b.b.b.c.i.b.b.b.f.D.c.g.g.j.b.b.b.d#i.i.j.b.b.b.R.g.g.b.b.b.b.d.d.i.j.b.b.j.D.#.q.b.b.b.b.j.d.q.f.b.b.b.b.a"};
